<svg xmlns="http://www.w3.org/2000/svg" xmlns:xlink="http://www.w3.org/1999/xlink" width="500" zoomAndPan="magnify" viewBox="0 0 375 374.999991" height="500" preserveAspectRatio="xMidYMid meet" version="1.0"><path fill="#000000" d="M 252.074219 249.011719 C 257.234375 260.929688 255.824219 273.351562 255.90625 285.625 C 255.984375 297.859375 255.980469 310.09375 255.898438 322.328125 C 255.828125 331.425781 248.492188 337.492188 240.03125 335.640625 C 234.132812 334.347656 229.988281 329.21875 229.976562 322.882812 C 229.9375 305.59375 229.875 288.300781 230.054688 271.011719 C 230.140625 262.394531 227.601562 254.917969 221.773438 248.585938 C 218.019531 244.507812 216.652344 239.859375 218.660156 234.621094 C 220.609375 229.542969 224.589844 227.1875 229.941406 226.191406 C 239.757812 224.371094 249.722656 222.800781 259.1875 219.765625 C 281.054688 212.761719 293.859375 197.167969 298.535156 174.9375 C 301.398438 161.308594 302.730469 147.542969 299.230469 133.777344 C 296.976562 124.898438 292.761719 116.980469 286.503906 110.300781 C 281.925781 105.417969 280.828125 100.242188 283.097656 93.90625 C 286.472656 84.46875 286.820312 74.773438 284.332031 64.414062 C 280.925781 65.570312 277.542969 66.308594 274.554688 67.820312 C 266.992188 71.644531 259.429688 75.53125 252.214844 79.957031 C 247.375 82.925781 242.761719 83.8125 237.257812 82.390625 C 210.765625 75.542969 184.253906 75.554688 157.722656 82.421875 C 152.347656 83.816406 147.707031 83.132812 143.070312 79.996094 C 134.007812 73.863281 124.472656 68.5625 113.886719 65.421875 C 112.941406 65.140625 111.96875 64.957031 110.78125 64.671875 C 108.8125 71.90625 108.65625 78.996094 109.992188 86.101562 C 110.589844 89.261719 111.542969 92.367188 112.519531 95.441406 C 114.089844 100.386719 113.433594 104.921875 109.90625 108.726562 C 98.355469 121.1875 93.230469 135.894531 93.902344 152.78125 C 94.367188 164.457031 95.785156 175.941406 100.144531 186.886719 C 107.210938 204.628906 120.679688 215.390625 138.507812 220.804688 C 146.878906 223.347656 155.59375 224.890625 164.242188 226.371094 C 173.019531 227.871094 178.214844 233.261719 177.054688 241.203125 C 176.683594 243.742188 175.371094 246.488281 173.667969 248.417969 C 167.507812 255.390625 164.878906 263.324219 165.023438 272.585938 C 165.277344 289.269531 165.148438 305.957031 165.082031 322.640625 C 165.054688 330.296875 159.5625 335.945312 152.316406 336.042969 C 145.019531 336.140625 139.382812 330.355469 139.308594 322.5625 C 139.242188 315.300781 139.296875 308.035156 139.296875 301.152344 C 132.675781 301.152344 126.316406 301.496094 120.011719 301.085938 C 104.964844 300.105469 92.4375 293.554688 82.222656 282.675781 C 77.589844 277.746094 73.4375 272.367188 69.117188 267.148438 C 65.550781 262.835938 61.84375 259.015625 56.207031 257.066406 C 49.953125 254.90625 47.089844 247.480469 49.246094 241.210938 C 51.460938 234.769531 58.15625 231.226562 64.796875 232.929688 C 73.375 235.125 80.066406 240.210938 85.730469 246.742188 C 89.835938 251.480469 93.777344 256.363281 97.65625 261.289062 C 108.511719 275.082031 122.675781 277.945312 138.925781 274.0625 C 139.230469 269.75 139.269531 265.496094 139.894531 261.335938 C 140.507812 257.269531 141.71875 253.292969 142.6875 249.179688 C 138.0625 247.769531 133.207031 246.46875 128.46875 244.820312 C 93.832031 232.78125 75.023438 207.835938 69.671875 172.195312 C 67.5625 158.152344 66.84375 144.042969 70.09375 130 C 72.679688 118.824219 77.304688 108.589844 84.136719 99.378906 C 85.3125 97.792969 85.730469 96.390625 85.28125 94.410156 C 81.632812 78.371094 82.957031 62.703125 89.085938 47.445312 C 91.632812 41.109375 95.839844 38.5625 102.621094 38.246094 C 118.628906 37.496094 132.601562 43.632812 145.753906 51.507812 C 152.058594 55.28125 157.628906 55.960938 164.664062 54.566406 C 188.679688 49.800781 212.761719 50.496094 236.6875 55.640625 C 239.449219 56.234375 241.570312 55.960938 244.011719 54.46875 C 255.878906 47.210938 268.238281 40.953125 282.164062 38.75 C 286.414062 38.074219 290.871094 38.074219 295.167969 38.460938 C 300.296875 38.925781 303.839844 42.027344 305.792969 46.839844 C 312.101562 62.367188 313.523438 78.296875 309.910156 94.691406 C 309.632812 95.960938 309.945312 97.757812 310.699219 98.789062 C 323.363281 116.117188 328.292969 135.558594 327 156.792969 C 326.136719 170.890625 323.960938 184.710938 318.429688 197.816406 C 307.96875 222.609375 288.996094 237.761719 263.75 245.726562 C 260.011719 246.902344 256.203125 247.855469 252.074219 249.011719 Z M 252.074219 249.011719 " fill-opacity="1" fill-rule="nonzero"/></svg>