<svg xmlns="http://www.w3.org/2000/svg" xmlns:xlink="http://www.w3.org/1999/xlink" width="200" zoomAndPan="magnify" viewBox="0 0 150 60" height="80" preserveAspectRatio="xMidYMid meet" version="1.2"><defs><clipPath id="400f5b5425"><path d="M 27.25 8 L 122.5 8 L 122.5 56 L 27.25 56 Z M 27.25 8 "/></clipPath></defs><g id="dd54f2ed1c"><path style=" stroke:none;fill-rule:nonzero;fill:#373737;fill-opacity:1;" d="M 117.75 35.164062 C 117.75 36.148438 117.617188 37.113281 117.347656 38.0625 C 117.078125 39.011719 116.6875 39.902344 116.167969 40.742188 C 115.652344 41.578125 115.027344 42.332031 114.300781 42.996094 C 113.574219 43.660156 112.769531 44.214844 111.886719 44.652344 C 110.5 45.34375 109.035156 45.714844 107.484375 45.761719 C 107.839844 45.742188 108.195312 45.6875 108.539062 45.605469 C 108.886719 45.519531 109.222656 45.402344 109.550781 45.257812 C 109.875 45.113281 110.183594 44.9375 110.480469 44.734375 C 110.773438 44.53125 111.046875 44.304688 111.296875 44.050781 C 111.550781 43.796875 111.777344 43.523438 111.980469 43.230469 C 112.183594 42.9375 112.355469 42.625 112.503906 42.300781 C 112.648438 41.972656 112.765625 41.636719 112.847656 41.289062 C 112.933594 40.941406 112.984375 40.589844 113.003906 40.234375 C 113.003906 40.214844 113.003906 40.195312 113.003906 40.175781 C 113.003906 40.160156 113.003906 40.144531 113.003906 40.128906 C 113.003906 40.054688 113.003906 39.980469 113.003906 39.90625 C 113.003906 39.832031 113.003906 39.757812 113.003906 39.683594 C 113.003906 39.667969 113.003906 39.652344 113.003906 39.636719 C 113.003906 39.617188 113.003906 39.597656 113.003906 39.578125 C 112.984375 39.222656 112.933594 38.871094 112.847656 38.523438 C 112.765625 38.175781 112.648438 37.839844 112.503906 37.511719 C 112.359375 37.1875 112.183594 36.875 111.980469 36.582031 C 111.78125 36.285156 111.550781 36.011719 111.300781 35.757812 C 111.046875 35.507812 110.773438 35.277344 110.480469 35.074219 C 110.1875 34.871094 109.875 34.699219 109.550781 34.550781 C 109.222656 34.40625 108.886719 34.289062 108.539062 34.203125 C 108.195312 34.117188 107.84375 34.066406 107.484375 34.046875 L 107.375 34.046875 C 107.304688 34.046875 107.230469 34.046875 107.15625 34.046875 C 105.9375 34 104.375 34.324219 102.523438 34.921875 C 100.554688 35.589844 98.625 36.363281 96.734375 37.230469 C 95.636719 37.726562 94.488281 38.261719 93.300781 38.84375 C 92.875 38.46875 92.453125 38.085938 92.027344 37.691406 L 91.960938 37.628906 C 89.691406 35.523438 87.394531 33.152344 85.046875 30.695312 C 94.707031 27.300781 103.425781 24.398438 107.148438 24.566406 C 107.289062 24.566406 107.429688 24.566406 107.570312 24.574219 L 107.753906 24.574219 L 107.964844 24.585938 C 108.625 24.636719 109.273438 24.75 109.914062 24.925781 C 110.550781 25.097656 111.167969 25.328125 111.765625 25.617188 C 112.359375 25.90625 112.925781 26.246094 113.457031 26.640625 C 113.988281 27.035156 114.476562 27.476562 114.925781 27.960938 C 115.375 28.445312 115.777344 28.96875 116.128906 29.53125 C 116.480469 30.089844 116.777344 30.679688 117.019531 31.296875 C 117.261719 31.910156 117.441406 32.542969 117.566406 33.195312 C 117.6875 33.84375 117.75 34.5 117.75 35.164062 Z M 117.75 35.164062 "/><path style=" stroke:none;fill-rule:nonzero;fill:#373737;fill-opacity:1;" d="M 83.824219 43.515625 C 78.128906 46.359375 72.398438 49.179688 66.460938 51.492188 C 60.773438 53.707031 54.320312 56.050781 48.113281 55.054688 C 46.847656 54.84375 45.625 54.488281 44.441406 53.988281 C 43.257812 53.488281 42.152344 52.859375 41.117188 52.101562 C 40.082031 51.339844 39.152344 50.46875 38.324219 49.488281 C 37.492188 48.511719 36.789062 47.449219 36.210938 46.300781 C 35.90625 45.691406 35.640625 45.0625 35.414062 44.421875 C 35.1875 43.777344 35 43.121094 34.859375 42.453125 C 34.714844 41.785156 34.613281 41.113281 34.554688 40.433594 C 34.496094 39.753906 34.480469 39.070312 34.507812 38.390625 C 34.535156 37.707031 34.605469 37.03125 34.71875 36.355469 C 34.832031 35.683594 34.988281 35.019531 35.183594 34.367188 C 35.378906 33.714844 35.617188 33.074219 35.894531 32.453125 C 36.171875 31.828125 36.488281 31.222656 36.84375 30.640625 C 37.195312 30.058594 37.585938 29.496094 38.007812 28.964844 C 38.433594 28.429688 38.890625 27.921875 39.378906 27.445312 C 39.867188 26.96875 40.382812 26.523438 40.925781 26.113281 C 41.46875 25.699219 42.039062 25.324219 42.628906 24.984375 C 43.222656 24.644531 43.832031 24.34375 44.464844 24.082031 C 45.09375 23.816406 45.738281 23.59375 46.394531 23.414062 C 47.050781 23.230469 47.71875 23.09375 48.394531 22.996094 C 49.070312 22.898438 49.75 22.84375 50.433594 22.832031 C 49.867188 22.847656 49.308594 22.921875 48.757812 23.042969 C 48.203125 23.167969 47.667969 23.339844 47.152344 23.566406 C 46.632812 23.789062 46.140625 24.0625 45.671875 24.378906 C 45.203125 24.699219 44.769531 25.054688 44.371094 25.457031 C 43.972656 25.855469 43.613281 26.289062 43.292969 26.757812 C 42.976562 27.226562 42.707031 27.71875 42.480469 28.238281 C 42.257812 28.757812 42.085938 29.292969 41.960938 29.84375 C 41.835938 30.394531 41.769531 30.953125 41.75 31.519531 C 41.75 31.613281 41.75 31.703125 41.75 31.792969 C 41.75 31.886719 41.75 31.980469 41.75 32.070312 C 41.765625 32.636719 41.835938 33.195312 41.960938 33.746094 C 42.082031 34.296875 42.257812 34.832031 42.480469 35.351562 C 42.707031 35.871094 42.976562 36.363281 43.292969 36.832031 C 43.613281 37.300781 43.96875 37.734375 44.371094 38.132812 C 44.769531 38.535156 45.203125 38.894531 45.671875 39.210938 C 46.136719 39.53125 46.632812 39.800781 47.148438 40.027344 C 47.667969 40.25 48.203125 40.425781 48.757812 40.546875 C 49.308594 40.671875 49.867188 40.742188 50.433594 40.761719 C 50.476562 40.761719 50.523438 40.761719 50.570312 40.761719 L 51.050781 40.761719 C 51.914062 40.742188 52.773438 40.65625 53.621094 40.5 L 53.730469 40.484375 C 54.910156 40.296875 56.21875 40.015625 57.636719 39.667969 C 60.355469 39 63.476562 38.066406 66.796875 36.988281 C 68.859375 36.320312 71 35.59375 73.179688 34.84375 L 73.785156 35.332031 L 73.894531 35.425781 C 77.171875 38.085938 80.5 40.886719 83.824219 43.515625 Z M 83.824219 43.515625 "/><g clip-rule="nonzero" clip-path="url(#400f5b5425)"><path style=" stroke:none;fill-rule:nonzero;fill:#ffffff;fill-opacity:1;" d="M 122.503906 39.90625 C 122.503906 40.042969 122.503906 40.183594 122.492188 40.320312 C 122.492188 40.382812 122.492188 40.445312 122.492188 40.507812 C 122.496094 40.527344 122.496094 40.542969 122.492188 40.5625 C 122.453125 41.519531 122.324219 42.464844 122.105469 43.394531 C 121.890625 44.328125 121.585938 45.234375 121.199219 46.109375 C 120.8125 46.988281 120.347656 47.820312 119.804688 48.609375 C 119.261719 49.398438 118.652344 50.132812 117.972656 50.804688 C 117.292969 51.480469 116.554688 52.085938 115.761719 52.625 C 114.96875 53.160156 114.132812 53.621094 113.253906 54 C 112.375 54.382812 111.46875 54.675781 110.53125 54.886719 C 109.597656 55.097656 108.652344 55.222656 107.695312 55.253906 L 107.429688 55.253906 C 107.21875 55.253906 107.007812 55.253906 106.792969 55.253906 C 106.707031 55.253906 106.621094 55.253906 106.535156 55.246094 L 106.480469 55.246094 C 105.578125 55.195312 104.6875 55.078125 103.804688 54.890625 L 103.636719 54.851562 C 97.347656 53.496094 90.585938 48.855469 83.824219 43.507812 C 77.929688 38.84375 72.304688 33.8125 66.175781 29.445312 C 63.640625 27.632812 60.960938 25.925781 58.125 24.632812 C 53.402344 22.472656 48.175781 22.160156 43.460938 24.535156 C 42.65625 24.9375 41.890625 25.402344 41.164062 25.929688 C 40.4375 26.457031 39.761719 27.042969 39.132812 27.683594 C 38.503906 28.328125 37.933594 29.015625 37.417969 29.753906 C 36.902344 30.488281 36.453125 31.261719 36.066406 32.074219 C 35.679688 32.882812 35.363281 33.722656 35.117188 34.585938 C 34.871094 35.449219 34.699219 36.328125 34.597656 37.21875 C 34.496094 38.113281 34.46875 39.007812 34.519531 39.90625 C 34.566406 40.800781 34.6875 41.6875 34.882812 42.566406 C 35.078125 43.441406 35.34375 44.296875 35.683594 45.128906 C 36.019531 45.960938 36.421875 46.761719 36.894531 47.527344 C 37.363281 48.292969 37.894531 49.011719 38.484375 49.691406 C 39.074219 50.367188 39.714844 50.992188 40.410156 51.5625 C 41.101562 52.132812 41.839844 52.640625 42.617188 53.089844 C 43.394531 53.539062 44.207031 53.917969 45.046875 54.234375 C 45.890625 54.546875 46.75 54.789062 47.632812 54.960938 C 48.515625 55.128906 49.40625 55.226562 50.304688 55.25 C 49.550781 55.234375 48.804688 55.1875 48.058594 55.101562 C 47.3125 55.015625 46.570312 54.898438 45.835938 54.742188 C 45.101562 54.585938 44.375 54.394531 43.660156 54.167969 C 42.941406 53.941406 42.238281 53.683594 41.546875 53.390625 C 40.855469 53.097656 40.179688 52.769531 39.519531 52.414062 C 38.859375 52.054688 38.21875 51.664062 37.597656 51.246094 C 36.972656 50.824219 36.371094 50.375 35.792969 49.898438 C 35.214844 49.421875 34.65625 48.917969 34.125 48.386719 C 33.59375 47.855469 33.089844 47.300781 32.613281 46.722656 C 32.136719 46.140625 31.6875 45.539062 31.265625 44.917969 C 30.847656 44.296875 30.457031 43.652344 30.097656 42.996094 C 29.738281 42.335938 29.414062 41.660156 29.121094 40.96875 C 28.824219 40.277344 28.566406 39.574219 28.339844 38.855469 C 28.113281 38.140625 27.921875 37.414062 27.765625 36.679688 C 27.609375 35.945312 27.488281 35.207031 27.402344 34.460938 C 27.316406 33.714844 27.269531 32.964844 27.253906 32.214844 C 27.253906 32.074219 27.253906 31.9375 27.253906 31.792969 C 27.253906 31.652344 27.253906 31.515625 27.253906 31.375 C 27.734375 14.871094 45.632812 3.800781 60.652344 10.496094 C 70.4375 14.859375 77.777344 23.070312 85.042969 30.675781 C 87.390625 33.132812 89.6875 35.507812 91.960938 37.613281 L 92.023438 37.671875 C 92.449219 38.066406 92.875 38.449219 93.296875 38.824219 C 94.507812 39.898438 95.722656 40.882812 96.929688 41.753906 C 101.175781 44.808594 106.824219 47.1875 111.894531 44.652344 C 112.410156 44.394531 112.902344 44.09375 113.367188 43.757812 C 113.835938 43.417969 114.273438 43.046875 114.679688 42.636719 C 115.085938 42.226562 115.453125 41.789062 115.789062 41.320312 C 116.125 40.851562 116.417969 40.355469 116.671875 39.839844 C 116.925781 39.324219 117.136719 38.789062 117.304688 38.238281 C 117.472656 37.683594 117.59375 37.125 117.667969 36.550781 C 117.742188 35.980469 117.773438 35.40625 117.753906 34.832031 C 117.738281 34.253906 117.671875 33.683594 117.5625 33.121094 C 117.453125 32.554688 117.296875 32 117.09375 31.460938 C 116.894531 30.921875 116.652344 30.398438 116.367188 29.898438 C 116.078125 29.398438 115.753906 28.925781 115.394531 28.476562 C 115.03125 28.027344 114.632812 27.613281 114.203125 27.230469 C 113.773438 26.847656 113.3125 26.5 112.828125 26.191406 C 112.339844 25.882812 111.832031 25.617188 111.300781 25.390625 C 110.769531 25.167969 110.226562 24.984375 109.664062 24.847656 C 109.105469 24.710938 108.539062 24.621094 107.964844 24.578125 C 108.902344 24.625 109.828125 24.761719 110.742188 24.980469 C 111.652344 25.199219 112.539062 25.5 113.398438 25.882812 C 114.253906 26.265625 115.070312 26.722656 115.84375 27.253906 C 116.617188 27.785156 117.339844 28.386719 118.003906 29.050781 C 118.667969 29.714844 119.265625 30.433594 119.796875 31.207031 C 120.328125 31.980469 120.785156 32.796875 121.167969 33.652344 C 121.550781 34.511719 121.851562 35.398438 122.070312 36.3125 C 122.289062 37.222656 122.421875 38.148438 122.472656 39.085938 C 122.472656 39.15625 122.484375 39.226562 122.484375 39.300781 C 122.488281 39.371094 122.484375 39.421875 122.484375 39.484375 C 122.5 39.621094 122.503906 39.765625 122.503906 39.90625 Z M 122.503906 39.90625 "/></g></g></svg>