<svg xmlns="http://www.w3.org/2000/svg" xmlns:xlink="http://www.w3.org/1999/xlink" width="500" zoomAndPan="magnify" viewBox="0 0 375 374.999991" height="500" preserveAspectRatio="xMidYMid meet" version="1.0"><defs><clipPath id="47af289ded"><path d="M 37.578125 48.972656 L 337.578125 48.972656 L 337.578125 325.722656 L 37.578125 325.722656 Z M 37.578125 48.972656 " clip-rule="nonzero"/></clipPath></defs><g clip-path="url(#47af289ded)"><path fill="#000000" d="M 198.871094 48.972656 C 122.382812 48.972656 60.375 110.976562 60.375 187.46875 C 60.367188 195.886719 61.121094 204.234375 62.636719 212.511719 C 64.152344 220.792969 66.40625 228.867188 69.398438 236.734375 L 38.574219 294.527344 C 38.355469 294.941406 38.199219 295.371094 38.101562 295.828125 C 38.003906 296.28125 37.96875 296.742188 38 297.207031 C 38.03125 297.671875 38.125 298.121094 38.285156 298.5625 C 38.441406 299 38.65625 299.40625 38.925781 299.785156 C 39.199219 300.164062 39.519531 300.496094 39.882812 300.785156 C 40.25 301.074219 40.644531 301.304688 41.078125 301.484375 C 41.507812 301.660156 41.953125 301.773438 42.414062 301.828125 C 42.878906 301.878906 43.339844 301.867188 43.796875 301.789062 L 107.058594 291.160156 C 110.1875 293.941406 113.4375 296.574219 116.804688 299.054688 C 120.175781 301.539062 123.652344 303.863281 127.230469 306.03125 C 130.8125 308.199219 134.484375 310.199219 138.246094 312.03125 C 142.011719 313.863281 145.847656 315.523438 149.761719 317.007812 C 153.675781 318.488281 157.652344 319.792969 161.683594 320.914062 C 165.714844 322.035156 169.789062 322.972656 173.910156 323.726562 C 178.027344 324.476562 182.167969 325.039062 186.339844 325.414062 C 190.507812 325.785156 194.683594 325.972656 198.871094 325.964844 C 275.359375 325.964844 337.367188 263.957031 337.367188 187.464844 C 337.367188 111.039062 275.296875 48.972656 198.871094 48.972656 Z M 199.28125 289.84375 C 195.945312 289.863281 192.617188 289.71875 189.292969 289.40625 C 185.96875 289.097656 182.671875 288.628906 179.394531 287.996094 C 176.117188 287.363281 172.878906 286.570312 169.679688 285.621094 C 166.480469 284.671875 163.335938 283.566406 160.246094 282.308594 C 157.15625 281.050781 154.136719 279.640625 151.183594 278.085938 C 148.230469 276.53125 145.359375 274.835938 142.574219 273 C 139.789062 271.164062 137.097656 269.195312 134.507812 267.09375 C 131.914062 264.992188 129.429688 262.769531 127.054688 260.425781 L 89.15625 267.273438 C 88.703125 267.347656 88.246094 267.363281 87.789062 267.3125 C 87.332031 267.261719 86.890625 267.152344 86.464844 266.980469 C 86.035156 266.804688 85.640625 266.578125 85.277344 266.296875 C 84.914062 266.015625 84.59375 265.6875 84.320312 265.320312 C 84.046875 264.949219 83.828125 264.546875 83.667969 264.117188 C 83.503906 263.6875 83.402344 263.242188 83.363281 262.785156 C 83.324219 262.324219 83.347656 261.871094 83.433594 261.417969 C 83.523438 260.964844 83.667969 260.535156 83.875 260.121094 L 103.011719 223.488281 C 100.78125 217.542969 99.117188 211.445312 98.019531 205.191406 C 96.925781 198.9375 96.417969 192.636719 96.5 186.289062 C 97.132812 130.070312 142.652344 85.089844 198.871094 85.089844 C 255.414062 85.089844 301.25 130.925781 301.25 187.46875 C 301.25 243.964844 255.773438 289.625 199.28125 289.84375 Z M 199.28125 289.84375 " fill-opacity="1" fill-rule="nonzero"/></g><path fill="#000000" d="M 184.398438 152.945312 L 179.929688 134.074219 C 179.800781 133.535156 179.644531 133.007812 179.460938 132.484375 C 179.28125 131.964844 179.070312 131.457031 178.832031 130.957031 C 178.597656 130.457031 178.335938 129.972656 178.046875 129.5 C 177.757812 129.03125 177.445312 128.574219 177.109375 128.136719 C 176.777344 127.699219 176.417969 127.277344 176.039062 126.878906 C 175.65625 126.476562 175.257812 126.097656 174.839844 125.738281 C 174.417969 125.382812 173.980469 125.046875 173.527344 124.734375 C 173.070312 124.421875 172.601562 124.132812 172.113281 123.871094 C 171.628906 123.605469 171.132812 123.371094 170.621094 123.160156 C 170.109375 122.949219 169.589844 122.765625 169.058594 122.609375 C 168.53125 122.453125 167.992188 122.328125 167.449219 122.226562 C 166.90625 122.128906 166.359375 122.058594 165.808594 122.015625 C 165.257812 121.976562 164.707031 121.960938 164.15625 121.980469 C 163.605469 121.996094 163.054688 122.042969 162.507812 122.117188 C 161.960938 122.191406 161.417969 122.292969 160.882812 122.425781 C 160.347656 122.554688 159.820312 122.714844 159.300781 122.902344 L 148.992188 126.613281 C 148.15625 126.914062 147.355469 127.28125 146.582031 127.71875 C 145.8125 128.152344 145.082031 128.652344 144.394531 129.210938 C 143.707031 129.769531 143.074219 130.382812 142.488281 131.050781 C 141.90625 131.71875 141.382812 132.429688 140.917969 133.183594 C 140.453125 133.9375 140.058594 134.726562 139.726562 135.550781 C 139.398438 136.371094 139.136719 137.214844 138.949219 138.082031 C 138.761719 138.949219 138.648438 139.824219 138.609375 140.710938 C 138.570312 141.59375 138.605469 142.476562 138.714844 143.355469 C 142.304688 172.542969 158.839844 243.152344 234.890625 258.667969 C 235.640625 258.820312 236.398438 258.917969 237.164062 258.960938 C 237.929688 259.003906 238.691406 258.992188 239.453125 258.921875 C 240.21875 258.855469 240.972656 258.730469 241.714844 258.550781 C 242.460938 258.371094 243.1875 258.140625 243.898438 257.855469 C 244.609375 257.570312 245.296875 257.234375 245.960938 256.847656 C 246.621094 256.460938 247.253906 256.03125 247.851562 255.550781 C 248.449219 255.074219 249.011719 254.554688 249.535156 253.996094 C 250.058594 253.4375 250.535156 252.839844 250.972656 252.210938 L 256.890625 243.664062 C 257.476562 242.816406 257.976562 241.917969 258.386719 240.96875 C 258.796875 240.023438 259.113281 239.042969 259.332031 238.035156 C 259.546875 237.023438 259.667969 236.003906 259.683594 234.972656 C 259.699219 233.9375 259.617188 232.914062 259.429688 231.898438 C 259.246094 230.882812 258.964844 229.894531 258.585938 228.933594 C 258.207031 227.972656 257.738281 227.058594 257.175781 226.191406 C 256.617188 225.324219 255.980469 224.519531 255.261719 223.777344 C 254.542969 223.035156 253.757812 222.371094 252.910156 221.78125 C 252.878906 221.757812 252.84375 221.734375 252.808594 221.714844 L 239.808594 212.859375 C 239.109375 212.386719 238.375 211.96875 237.609375 211.609375 C 236.84375 211.253906 236.050781 210.957031 235.238281 210.726562 C 234.425781 210.496094 233.597656 210.335938 232.757812 210.238281 C 231.917969 210.140625 231.074219 210.113281 230.230469 210.152344 C 229.382812 210.191406 228.546875 210.296875 227.71875 210.472656 C 226.890625 210.644531 226.082031 210.882812 225.292969 211.1875 C 224.503906 211.492188 223.746094 211.859375 223.015625 212.285156 C 222.285156 212.714844 221.59375 213.195312 220.941406 213.734375 C 220.292969 214.273438 219.609375 214.753906 218.882812 215.179688 C 218.15625 215.605469 217.402344 215.972656 216.621094 216.277344 C 215.835938 216.582031 215.035156 216.820312 214.210938 216.996094 C 213.390625 217.171875 212.558594 217.28125 211.71875 217.324219 C 210.878906 217.367188 210.039062 217.34375 209.203125 217.25 C 208.367188 217.15625 207.546875 217 206.734375 216.773438 C 205.925781 216.550781 205.136719 216.261719 204.375 215.910156 C 203.609375 215.558594 202.878906 215.152344 202.179688 214.683594 C 194.269531 209.351562 183.566406 200.515625 176.613281 188.265625 C 176.222656 187.582031 175.886719 186.875 175.601562 186.140625 C 175.316406 185.410156 175.089844 184.65625 174.917969 183.890625 C 174.746094 183.125 174.632812 182.347656 174.578125 181.5625 C 174.523438 180.777344 174.527344 179.996094 174.585938 179.210938 C 174.648438 178.425781 174.769531 177.652344 174.945312 176.886719 C 175.125 176.121094 175.359375 175.371094 175.648438 174.640625 C 175.9375 173.910156 176.28125 173.203125 176.675781 172.523438 C 177.070312 171.84375 177.511719 171.199219 178.003906 170.585938 L 181.351562 166.425781 C 182.101562 165.492188 182.738281 164.488281 183.257812 163.410156 C 183.777344 162.328125 184.171875 161.207031 184.433594 160.039062 C 184.699219 158.871094 184.828125 157.6875 184.820312 156.488281 C 184.816406 155.292969 184.675781 154.109375 184.398438 152.945312 Z M 184.398438 152.945312 " fill-opacity="1" fill-rule="nonzero"/></svg>