<svg xmlns="http://www.w3.org/2000/svg" xmlns:xlink="http://www.w3.org/1999/xlink" width="500" zoomAndPan="magnify" viewBox="0 0 375 374.999991" height="500" preserveAspectRatio="xMidYMid meet" version="1.2"><defs><clipPath id="a62de5e2d9"><path d="M 60.820312 90.113281 L 314.320312 90.113281 L 314.320312 285.113281 L 60.820312 285.113281 Z M 60.820312 90.113281 "/></clipPath></defs><g id="9af419f5db"><g clip-rule="nonzero" clip-path="url(#a62de5e2d9)"><path style=" stroke:none;fill-rule:nonzero;fill:#000000;fill-opacity:1;" d="M 80.386719 90.113281 C 69.738281 90.113281 60.902344 98.957031 60.902344 109.613281 L 60.902344 265.613281 C 60.902344 276.269531 69.738281 285.113281 80.386719 285.113281 L 294.75 285.113281 C 305.398438 285.113281 314.238281 276.269531 314.238281 265.613281 L 314.238281 109.613281 C 314.238281 98.957031 305.398438 90.113281 294.75 90.113281 Z M 106.6875 109.613281 L 268.449219 109.613281 L 187.570312 169.429688 Z M 90.132812 133.742188 L 187.570312 205.800781 L 285.003906 133.742188 L 285.003906 265.613281 L 90.132812 265.613281 Z M 90.132812 133.742188 "/></g></g></svg>