<svg xmlns="http://www.w3.org/2000/svg" xmlns:xlink="http://www.w3.org/1999/xlink" width="500" zoomAndPan="magnify" viewBox="0 0 375 374.999991" height="500" preserveAspectRatio="xMidYMid meet" version="1.0"><defs><clipPath id="08548b524f"><path d="M 38.222656 38.945312 L 336.722656 38.945312 L 336.722656 337.445312 L 38.222656 337.445312 Z M 38.222656 38.945312 " clip-rule="nonzero"/></clipPath></defs><path fill="#000000" d="M 107.8125 147.203125 L 129.890625 147.203125 C 130.167969 147.203125 130.445312 147.230469 130.714844 147.285156 C 130.988281 147.339844 131.253906 147.421875 131.511719 147.527344 C 131.765625 147.632812 132.011719 147.761719 132.242188 147.917969 C 132.472656 148.074219 132.6875 148.246094 132.882812 148.445312 C 133.082031 148.640625 133.257812 148.855469 133.410156 149.085938 C 133.566406 149.316406 133.695312 149.5625 133.800781 149.816406 C 133.910156 150.074219 133.988281 150.339844 134.042969 150.613281 C 134.097656 150.886719 134.125 151.160156 134.125 151.4375 L 134.125 272.878906 C 134.125 273.15625 134.097656 273.429688 134.042969 273.703125 C 133.988281 273.976562 133.910156 274.242188 133.800781 274.496094 C 133.695312 274.753906 133.566406 275 133.410156 275.230469 C 133.257812 275.460938 133.082031 275.675781 132.882812 275.871094 C 132.6875 276.066406 132.472656 276.242188 132.242188 276.398438 C 132.011719 276.550781 131.765625 276.683594 131.511719 276.789062 C 131.253906 276.894531 130.988281 276.976562 130.714844 277.03125 C 130.445312 277.085938 130.167969 277.109375 129.890625 277.109375 L 107.8125 277.109375 C 107.535156 277.109375 107.257812 277.085938 106.984375 277.03125 C 106.714844 276.976562 106.449219 276.894531 106.191406 276.789062 C 105.933594 276.683594 105.691406 276.550781 105.460938 276.398438 C 105.226562 276.242188 105.015625 276.066406 104.816406 275.871094 C 104.621094 275.675781 104.445312 275.460938 104.292969 275.230469 C 104.136719 275 104.007812 274.753906 103.898438 274.496094 C 103.792969 274.242188 103.714844 273.976562 103.660156 273.703125 C 103.605469 273.429688 103.578125 273.15625 103.578125 272.878906 L 103.578125 151.4375 C 103.578125 151.160156 103.605469 150.886719 103.660156 150.613281 C 103.714844 150.339844 103.792969 150.074219 103.898438 149.816406 C 104.007812 149.5625 104.136719 149.316406 104.292969 149.085938 C 104.445312 148.855469 104.621094 148.640625 104.816406 148.445312 C 105.015625 148.246094 105.226562 148.074219 105.460938 147.917969 C 105.691406 147.761719 105.933594 147.632812 106.191406 147.527344 C 106.449219 147.421875 106.714844 147.339844 106.984375 147.285156 C 107.257812 147.230469 107.535156 147.203125 107.8125 147.203125 Z M 107.8125 147.203125 " fill-opacity="1" fill-rule="nonzero"/><path fill="#000000" d="M 136.636719 117.246094 C 136.601562 106.832031 129.132812 99.28125 118.851562 99.28125 C 108.570312 99.28125 100.816406 107.035156 100.816406 117.316406 C 100.816406 122.101562 102.5625 126.550781 105.730469 129.847656 C 108.988281 133.234375 113.46875 135.097656 118.351562 135.097656 C 123.757812 135.097656 128.589844 133.195312 131.949219 129.710938 C 135.097656 126.457031 136.757812 122.058594 136.636719 117.316406 C 136.636719 117.292969 136.636719 117.277344 136.636719 117.246094 Z M 136.636719 117.246094 " fill-opacity="1" fill-rule="nonzero"/><path fill="#000000" d="M 257.570312 155.746094 C 246.574219 145.914062 233.691406 144.445312 226.988281 144.445312 C 216.976562 144.445312 207.433594 147.121094 199.390625 152.183594 C 195.875 154.398438 192.699219 157.019531 189.867188 160.058594 L 189.3125 151.164062 C 189.277344 150.628906 189.144531 150.113281 188.914062 149.625 C 188.6875 149.136719 188.375 148.710938 187.980469 148.339844 C 187.585938 147.972656 187.140625 147.6875 186.636719 147.492188 C 186.136719 147.292969 185.617188 147.195312 185.078125 147.195312 L 165.515625 147.195312 C 165.226562 147.195312 164.9375 147.226562 164.652344 147.285156 C 164.367188 147.34375 164.089844 147.433594 163.824219 147.550781 C 163.558594 147.667969 163.304688 147.808594 163.066406 147.976562 C 162.828125 148.144531 162.613281 148.335938 162.414062 148.550781 C 162.214844 148.765625 162.042969 148.996094 161.890625 149.246094 C 161.742188 149.496094 161.617188 149.757812 161.523438 150.03125 C 161.425781 150.308594 161.359375 150.589844 161.320312 150.878906 C 161.28125 151.167969 161.273438 151.457031 161.296875 151.746094 C 161.992188 161.015625 162.285156 170.753906 162.285156 184.296875 L 162.285156 272.878906 C 162.285156 273.15625 162.3125 273.429688 162.367188 273.703125 C 162.421875 273.976562 162.503906 274.242188 162.609375 274.496094 C 162.714844 274.753906 162.847656 275 163 275.230469 C 163.15625 275.460938 163.332031 275.675781 163.527344 275.871094 C 163.722656 276.066406 163.9375 276.242188 164.167969 276.398438 C 164.398438 276.550781 164.644531 276.683594 164.902344 276.789062 C 165.15625 276.894531 165.421875 276.976562 165.695312 277.03125 C 165.96875 277.085938 166.242188 277.109375 166.519531 277.109375 L 188.601562 277.109375 C 188.878906 277.109375 189.15625 277.085938 189.425781 277.03125 C 189.699219 276.976562 189.964844 276.894531 190.222656 276.789062 C 190.480469 276.683594 190.722656 276.550781 190.953125 276.398438 C 191.183594 276.242188 191.398438 276.066406 191.59375 275.871094 C 191.792969 275.675781 191.96875 275.460938 192.121094 275.230469 C 192.277344 275 192.40625 274.753906 192.511719 274.496094 C 192.621094 274.242188 192.699219 273.976562 192.753906 273.703125 C 192.808594 273.429688 192.835938 273.15625 192.835938 272.878906 L 192.835938 199.863281 C 192.835938 196.429688 193.289062 193.210938 194.085938 191.023438 C 194.109375 190.953125 194.132812 190.886719 194.15625 190.8125 C 197.140625 181.074219 206.199219 171.222656 219.714844 171.222656 C 228.078125 171.222656 234.082031 174.085938 238.070312 179.96875 C 241.667969 185.285156 243.574219 193.207031 243.574219 202.871094 L 243.574219 272.878906 C 243.574219 273.15625 243.601562 273.429688 243.65625 273.703125 C 243.710938 273.976562 243.789062 274.242188 243.894531 274.496094 C 244.003906 274.753906 244.132812 275 244.289062 275.230469 C 244.441406 275.460938 244.617188 275.675781 244.8125 275.871094 C 245.011719 276.066406 245.226562 276.242188 245.457031 276.398438 C 245.6875 276.550781 245.929688 276.683594 246.1875 276.789062 C 246.445312 276.894531 246.710938 276.976562 246.980469 277.03125 C 247.253906 277.085938 247.53125 277.109375 247.808594 277.109375 L 269.890625 277.109375 C 270.167969 277.109375 270.441406 277.085938 270.714844 277.03125 C 270.988281 276.976562 271.253906 276.894531 271.507812 276.789062 C 271.765625 276.683594 272.011719 276.550781 272.242188 276.398438 C 272.472656 276.242188 272.6875 276.066406 272.882812 275.871094 C 273.078125 275.675781 273.253906 275.460938 273.410156 275.230469 C 273.5625 275 273.695312 274.753906 273.800781 274.496094 C 273.90625 274.242188 273.988281 273.976562 274.042969 273.703125 C 274.09375 273.429688 274.121094 273.15625 274.121094 272.878906 L 274.121094 200.363281 C 274.121094 190.035156 272.558594 180.878906 269.480469 173.152344 C 266.71875 166.199219 262.707031 160.34375 257.570312 155.746094 Z M 257.570312 155.746094 " fill-opacity="1" fill-rule="nonzero"/><g clip-path="url(#08548b524f)"><path fill="#000000" d="M 297.863281 38.945312 L 77.082031 38.945312 C 55.65625 38.945312 38.222656 56.378906 38.222656 77.804688 L 38.222656 298.585938 C 38.222656 320.011719 55.65625 337.445312 77.082031 337.445312 L 297.863281 337.445312 C 319.289062 337.445312 336.722656 320.011719 336.722656 298.585938 L 336.722656 77.804688 C 336.722656 56.378906 319.289062 38.945312 297.863281 38.945312 Z M 309.4375 79.6875 L 309.4375 296.703125 C 309.4375 297.585938 309.347656 298.460938 309.175781 299.328125 C 309.003906 300.195312 308.746094 301.035156 308.410156 301.851562 C 308.070312 302.667969 307.65625 303.441406 307.164062 304.175781 C 306.671875 304.910156 306.117188 305.589844 305.492188 306.214844 C 304.867188 306.839844 304.1875 307.398438 303.453125 307.886719 C 302.71875 308.378906 301.945312 308.792969 301.128906 309.132812 C 300.3125 309.46875 299.472656 309.726562 298.605469 309.898438 C 297.738281 310.070312 296.863281 310.160156 295.980469 310.160156 L 78.964844 310.160156 C 78.082031 310.160156 77.207031 310.070312 76.339844 309.898438 C 75.476562 309.726562 74.632812 309.46875 73.816406 309.132812 C 73.003906 308.792969 72.226562 308.378906 71.492188 307.886719 C 70.757812 307.398438 70.078125 306.839844 69.453125 306.214844 C 68.832031 305.589844 68.273438 304.910156 67.78125 304.175781 C 67.289062 303.441406 66.875 302.667969 66.539062 301.851562 C 66.199219 301.035156 65.945312 300.195312 65.769531 299.328125 C 65.597656 298.460938 65.511719 297.585938 65.507812 296.703125 L 65.507812 79.6875 C 65.511719 78.804688 65.597656 77.929688 65.769531 77.0625 C 65.945312 76.199219 66.199219 75.355469 66.539062 74.542969 C 66.875 73.726562 67.289062 72.949219 67.78125 72.214844 C 68.273438 71.480469 68.832031 70.800781 69.453125 70.179688 C 70.078125 69.554688 70.757812 68.996094 71.492188 68.503906 C 72.226562 68.015625 73.003906 67.597656 73.816406 67.261719 C 74.632812 66.921875 75.476562 66.667969 76.339844 66.492188 C 77.207031 66.320312 78.082031 66.234375 78.964844 66.234375 L 295.980469 66.234375 C 296.863281 66.234375 297.738281 66.320312 298.605469 66.492188 C 299.472656 66.667969 300.3125 66.921875 301.128906 67.261719 C 301.945312 67.597656 302.71875 68.015625 303.453125 68.503906 C 304.1875 68.996094 304.867188 69.554688 305.492188 70.179688 C 306.117188 70.800781 306.671875 71.480469 307.164062 72.214844 C 307.65625 72.949219 308.070312 73.726562 308.410156 74.542969 C 308.746094 75.355469 309.003906 76.199219 309.175781 77.0625 C 309.347656 77.929688 309.4375 78.804688 309.4375 79.6875 Z M 309.4375 79.6875 " fill-opacity="1" fill-rule="nonzero"/></g></svg>